<svg width="135" height="25" viewBox="0 0 135 25" fill="none" xmlns="http://www.w3.org/2000/svg">
<path d="M9.52147 11.5124L1 17.4058L5.53947 19.8746L13.6627 14.0609V3.78738L9.04363 1.31854L9.52147 11.5124Z" stroke="white" stroke-width="0.5"/>
<path d="M18.7597 14.5388L9.36218 23.6178V14.1406L18.7597 5.1413L28.0776 14.5388V23.6178L18.7597 14.5388Z" stroke="white" stroke-width="0.5"/>
<path d="M36.4397 17.5651L31.9003 19.795L23.6974 13.9016L24.1752 3.38918L28.9536 1.31854L28.3165 11.6717L36.4397 17.5651Z" stroke="white" stroke-width="0.5"/>
<path d="M42.3172 1.38227H48.9432C51.789 1.38227 53.8915 2.32733 55.2507 4.21745C56.6311 6.10757 57.3213 8.86842 57.3213 12.5C57.3213 16.1316 56.6311 18.8924 55.2507 20.7825C53.8915 22.6727 51.789 23.6177 48.9432 23.6177H42.3172V1.38227ZM48.7202 20.687C50.3555 20.687 51.566 20.1454 52.3518 19.0623C53.1588 17.958 53.5623 16.3864 53.5623 14.3476V10.6524C53.5623 8.61357 53.1588 7.05263 52.3518 5.96953C51.566 4.86519 50.3555 4.31302 48.7202 4.31302H45.8532V20.687H48.7202Z" fill="white"/>
<path d="M63.4252 23.6177H59.8892V1.38227H68.2036C70.3273 1.38227 71.9414 1.97692 73.0457 3.16621C74.1713 4.35549 74.7341 5.99077 74.7341 8.07202C74.7341 9.77101 74.32 11.1727 73.4917 12.277C72.6635 13.3813 71.4742 14.0609 69.9238 14.3158L75.0526 23.6177H71.1025L66.3878 14.6343H63.4252V23.6177ZM67.6939 11.7673C69.9026 11.7673 71.0069 10.7585 71.0069 8.741V7.37119C71.0069 5.35365 69.9026 4.34488 67.6939 4.34488H63.4252V11.7673H67.6939Z" fill="white"/>
<path d="M84.2784 24C82.8768 24 81.6556 23.7452 80.615 23.2355C79.5956 22.7045 78.7461 21.9506 78.0665 20.9737C77.4082 19.9968 76.9197 18.7969 76.6011 17.374C76.2826 15.9511 76.1233 14.3264 76.1233 12.5C76.1233 10.6948 76.2826 9.08079 76.6011 7.65789C76.9197 6.21376 77.4082 5.00323 78.0665 4.02632C78.7461 3.0494 79.5956 2.30609 80.615 1.7964C81.6556 1.26547 82.8768 1 84.2784 1C85.6801 1 86.8906 1.26547 87.91 1.7964C88.9506 2.30609 89.8001 3.0494 90.4585 4.02632C91.1381 5.00323 91.6372 6.21376 91.9557 7.65789C92.2743 9.08079 92.4336 10.6948 92.4336 12.5C92.4336 14.3264 92.2743 15.9511 91.9557 17.374C91.6372 18.7969 91.1381 19.9968 90.4585 20.9737C89.8001 21.9506 88.9506 22.7045 87.91 23.2355C86.8906 23.7452 85.6801 24 84.2784 24ZM84.2784 21.0374C85.8712 21.0374 86.9968 20.4428 87.6552 19.2535C88.3135 18.0429 88.6427 16.4077 88.6427 14.3476V10.6205C88.6427 8.58172 88.3135 6.96768 87.6552 5.77839C86.9968 4.56787 85.8712 3.9626 84.2784 3.9626C82.6856 3.9626 81.5601 4.56787 80.9017 5.77839C80.2433 6.96768 79.9142 8.58172 79.9142 10.6205V14.3795C79.9142 16.4183 80.2433 18.0429 80.9017 19.2535C81.5601 20.4428 82.6856 21.0374 84.2784 21.0374Z" fill="white"/>
<path d="M97.9322 6.51108H97.6455V23.6177H94.5236V1.38227H99.1109L105.641 18.4889H105.928V1.38227H109.05V23.6177H104.463L97.9322 6.51108Z" fill="white"/>
<path d="M112.478 23.6177V1.38227H126.399V4.37673H116.046V10.8435H126.017V13.8379H116.046V20.6233H126.399V23.6177H112.478Z" fill="white"/>
<path d="M132.087 5.70674C131.785 5.70674 131.502 5.65497 131.239 5.55144C130.976 5.43994 130.745 5.28863 130.546 5.09749C130.355 4.89839 130.204 4.66744 130.092 4.40462C129.981 4.13385 129.925 3.84316 129.925 3.53257C129.925 3.22197 129.981 2.93527 130.092 2.67246C130.204 2.40168 130.355 2.17073 130.546 1.97959C130.745 1.78049 130.976 1.62917 131.239 1.52564C131.502 1.41415 131.785 1.3584 132.087 1.3584C132.39 1.3584 132.673 1.41415 132.935 1.52564C133.198 1.62917 133.425 1.78049 133.616 1.97959C133.815 2.17073 133.971 2.40168 134.082 2.67246C134.194 2.93527 134.25 3.22197 134.25 3.53257C134.25 3.84316 134.194 4.13385 134.082 4.40462C133.971 4.66744 133.815 4.89839 133.616 5.09749C133.425 5.28863 133.198 5.43994 132.935 5.55144C132.673 5.65497 132.39 5.70674 132.087 5.70674ZM132.087 5.52755C132.358 5.52755 132.609 5.47976 132.84 5.38419C133.079 5.28066 133.286 5.14528 133.461 4.97803C133.636 4.80282 133.772 4.59974 133.867 4.36879C133.971 4.13783 134.023 3.89095 134.023 3.62814V3.437C134.023 3.17419 133.971 2.9273 133.867 2.69635C133.772 2.46539 133.636 2.26629 133.461 2.09905C133.286 1.92384 133.079 1.78845 132.84 1.69289C132.609 1.58935 132.358 1.53759 132.087 1.53759C131.817 1.53759 131.562 1.58935 131.323 1.69289C131.092 1.78845 130.889 1.92384 130.713 2.09905C130.538 2.26629 130.399 2.46539 130.295 2.69635C130.2 2.9273 130.152 3.17419 130.152 3.437V3.62814C130.152 3.89095 130.2 4.13783 130.295 4.36879C130.399 4.59974 130.538 4.80282 130.713 4.97803C130.889 5.14528 131.092 5.28066 131.323 5.38419C131.562 5.47976 131.817 5.52755 132.087 5.52755ZM131.645 4.6316H131.466V2.42159H132.266C132.474 2.42159 132.637 2.47336 132.756 2.57689C132.876 2.68042 132.935 2.84766 132.935 3.07862C132.935 3.26976 132.88 3.41709 132.768 3.52062C132.665 3.62415 132.529 3.6799 132.362 3.68786L132.995 4.6316H132.78L132.171 3.69981H131.645V4.6316ZM132.255 3.54451C132.438 3.54451 132.565 3.51266 132.637 3.44895C132.708 3.37727 132.744 3.26179 132.744 3.10251V3.01889C132.744 2.85961 132.708 2.74811 132.637 2.6844C132.565 2.61273 132.438 2.57689 132.255 2.57689H131.645V3.54451H132.255Z" fill="white"/>
</svg>
