<svg width="102" height="23" viewBox="0 0 102 23" fill="none" xmlns="http://www.w3.org/2000/svg">
<path fill-rule="evenodd" clip-rule="evenodd" d="M0 18.2164H4.55392C4.55394 18.2164 4.55396 18.2164 4.55398 18.2164C9.58414 18.2163 13.6619 14.1386 13.6619 9.1084H4.55398H4.55392H1.40123C0.62735 9.1084 0 9.73575 0 10.5096V18.2164Z" fill="#FDFDFD"/>
<path fill-rule="evenodd" clip-rule="evenodd" d="M25.9229 9.10796C26.6968 9.10796 27.3241 8.48061 27.3241 7.70673L27.3241 0H22.7701L22.7701 9.10796H25.9229ZM22.7701 9.10797V7.127e-06C17.7399 7.18698e-06 13.6621 4.07778 13.6621 9.10797H22.7701Z" fill="#FDFDFD"/>
<path fill-rule="evenodd" clip-rule="evenodd" d="M47.2283 16.7073C46.1628 17.5715 44.7505 18.0158 42.9913 18.0158C39.8196 18.0158 37.4409 16.4356 36.5488 13.7937L38.0355 12.9295C38.655 15.0777 40.3647 16.3369 43.016 16.3369C45.593 16.3369 47.1044 15.1023 47.1044 13.2258C47.1044 12.3122 46.7823 11.6456 46.1133 11.1765C45.4443 10.7074 44.3541 10.2382 42.8426 9.74439C41.0337 9.15185 39.8444 8.68271 39.2745 8.31236C37.9612 7.52223 37.2922 6.38642 37.2922 4.8803C37.2922 3.42354 37.8126 2.26307 38.8285 1.42357C39.8444 0.559395 41.108 0.139648 42.6195 0.139648C45.3204 0.139648 47.3769 1.69517 48.3433 3.86797L46.8815 4.68278C46.0885 2.78158 44.6762 1.81862 42.6195 1.81862C40.4639 1.81862 39.0267 2.92972 39.0267 4.80623C39.0267 5.67041 39.324 6.31239 39.9187 6.73209C40.5134 7.15188 41.5045 7.59626 42.8673 8.04073L44.2054 8.50987C44.4779 8.58391 44.8744 8.73207 45.3947 8.95434C45.9151 9.15185 46.3115 9.32469 46.5593 9.49752C47.0549 9.79375 47.9221 10.3864 48.2194 10.9542C48.5415 11.4727 48.8389 12.2875 48.8389 13.1765C48.8389 14.6332 48.2938 15.8184 47.2283 16.7073ZM88.9425 7.81917C87.8024 6.01679 86.1425 5.10321 83.9373 5.10321C82.178 5.10321 80.6666 5.72048 79.4028 6.97968C78.1639 8.23896 77.5444 9.76979 77.5444 11.5722C77.5444 13.3746 78.1639 14.9055 79.4028 16.1647C80.6666 17.4239 82.178 18.0412 83.9373 18.0412C86.1425 18.0412 87.8024 17.1277 88.9425 15.3252V17.7449H90.5779V0.461314H88.9425V7.81917ZM80.5922 15.0536C79.6506 14.0907 79.1798 12.9302 79.1798 11.5722C79.1798 10.2143 79.6506 9.05377 80.5922 8.11548C81.5338 7.15252 82.6984 6.68345 84.0612 6.68345C85.424 6.68345 86.5889 7.15252 87.53 8.11548C88.4719 9.05377 88.9425 10.2143 88.9425 11.5722C88.9425 12.9302 88.4719 14.0907 87.53 15.0536C86.5889 15.9919 85.424 16.461 84.0612 16.461C82.6984 16.461 81.5338 15.9919 80.5922 15.0536ZM57.49 5.3995H53.9219V1.94277L52.2865 2.43658V5.3995H49.6849V6.97968H52.2865V14.4611C52.2865 17.3252 54.021 18.2634 57.49 17.7449V16.3129C57.3635 16.3181 57.2403 16.3236 57.1206 16.3289L57.1196 16.329H57.1192H57.1184C54.9874 16.4235 53.9219 16.4708 53.9219 14.4611V6.97968H57.49V5.3995ZM61.5691 5.3995H59.9337V17.7449H61.5691V10.8809C61.5691 8.04145 63.2291 6.78217 65.484 6.78217V5.20197C63.6256 5.20197 62.3371 5.94268 61.5691 7.44883V5.3995ZM67.2343 5.20197L71.8926 15.745L75.9067 5.3995H77.6412L72.3386 18.8807C71.3723 21.3252 69.5139 22.856 67.3334 22.6832V21.1523C68.8201 21.3252 69.9599 20.4609 70.728 18.5844L71.0501 17.819L66.1811 6.78217L65.484 5.20197H67.2343ZM97.3665 6.68345C95.954 6.68345 94.7652 7.37479 94.7652 8.63399C94.7652 9.74511 95.9044 10.3623 97.3169 10.7328C97.3473 10.7402 97.3777 10.7477 97.4072 10.7552L97.4943 10.7768C99.5435 11.2849 102 11.8944 102 14.4858C102 15.5474 101.579 16.3869 100.736 17.0536C99.919 17.7202 98.8285 18.0412 97.5151 18.0412C95.1367 18.0412 93.4022 16.8808 92.7335 15.2018L94.1204 14.387C94.5918 15.6709 95.8549 16.461 97.5151 16.461C99.1257 16.461 100.365 15.8437 100.365 14.4858C100.365 13.3746 99.2248 12.7574 97.8131 12.3871C97.7715 12.3768 97.73 12.3665 97.6884 12.3562L97.6365 12.3432L97.6357 12.343C95.5865 11.8348 93.1298 11.2254 93.1298 8.63399C93.1298 7.62166 93.526 6.78217 94.3194 6.11551C95.1367 5.44885 96.1529 5.10321 97.3665 5.10321C99.3742 5.10321 100.984 6.06615 101.703 7.62166L100.34 8.41179C99.8695 7.25131 98.878 6.68345 97.3665 6.68345Z" fill="#FDFDFD"/>
<path d="M65.4062 5.20215H66.2644V6.78357H65.4062V5.20215Z" fill="#FDFDFD"/>
</svg>
